<svg xmlns="http://www.w3.org/2000/svg" fill="none" viewBox="0 0 128 128">
  <rect width="128" height="128" rx="16"/>
  <path d="M12.1 78.53c-.07-.17-.1-.35-.1-.53 0-.26.05-.54.16-.82.12-.31.6-.47 1.42-.47 1.44-.09 2.37-.53 2.79-1.32.42-.8.63-2.64.63-5.53v-9.7c0-3.2-.06-4.9-.19-5.1-.2-.5-1.1-.87-2.66-1.1l-1.49-.2c-.25-.04-.35-.33-.31-.87.04-.54.15-.86.31-.94a51.7 51.7 0 0 1 8.52-2.92l.29-.03c.2 0 .36.08.47.23.13.22.19.56.19 1.03v4c.04.45.33.47.86.07 4.2-3.07 7.58-4.61 10.16-4.63 1.47 0 2.76.44 3.86 1.32 1.1.88 1.89 2.1 2.37 3.64.09.31.33.31.73 0a99.8 99.8 0 0 1 3.34-2.4c.7-.47 1.76-1.02 3.17-1.64a9.65 9.65 0 0 1 3.84-.92c2.85 0 4.85 1.35 5.99 4.07.63 1.54.95 4.57.95 9.07v.43c0 1.21-.05 3-.13 5.35a162 162 0 0 0-.13 5.38c0 1.08.26 1.77.78 2.08.52.31 1.7.47 3.56.47.13-.05.33-.06.62-.04.28.03.49.1.62.2.19.1.28.34.28.76l-.03.5c0 .29-.06.54-.2.76-.1.2-.21.29-.34.27h-.1c-1.22-.05-3.03-.07-5.42-.07-2.4 0-5.4.02-8.98.07-.42 0-.7-.14-.82-.4-.13-.22-.17-.57-.13-1.04.04-.48.23-.72.57-.72h.67c1.39 0 2.32-.22 2.78-.67.47-.46.76-1.41.89-2.87.2-3.07.33-6.23.35-9.5 0-4.2-.33-7.01-.98-8.46-.66-1.45-1.87-2.17-3.65-2.17-1.6 0-4.24 1.31-7.91 3.94v15.66c0 1.68.24 2.78.71 3.3.48.52 1.43.77 2.87.77.34 0 .56.07.68.2.11.14.2.4.24.8 0 .26-.07.52-.21.78-.14.25-.29.38-.46.38a325 325 0 0 0-8.74-.14c-1.73 0-3.31.03-4.75.07-.38 0-.59-.3-.63-.91-.04-.6.13-1 .5-1.18.1-.04.38-.06.86-.06 1.7 0 2.76-.39 3.22-1.16.45-.77.68-2.7.68-5.76V58.8c0-1.77-.4-3.15-1.17-4.14a3.85 3.85 0 0 0-3.2-1.49c-1.73 0-4.46 1.31-8.17 3.94v15.66c0 1.72.24 2.83.71 3.33.48.5 1.54.74 3.18.74.3-.08.5-.08.6 0 .3.1.45.49.45 1.2-.04.24-.13.47-.25.7-.11.2-.23.28-.35.26h-.07c-2.1-.1-4.3-.14-6.6-.14-2.29 0-4.67.05-7.14.14-.3 0-.48-.16-.56-.47Z"/>
  <path fill-opacity=".7" d="M65.1 78.53c-.07-.17-.1-.35-.1-.53 0-.26.05-.54.16-.82.12-.31.6-.47 1.42-.47 1.44-.09 2.37-.53 2.79-1.32.42-.8.63-2.64.63-5.53v-9.7c0-3.2-.06-4.9-.19-5.1-.2-.5-1.1-.87-2.66-1.1l-1.49-.2c-.25-.04-.35-.33-.31-.87.04-.54.15-.86.31-.94a51.7 51.7 0 0 1 8.52-2.92l.29-.03c.2 0 .36.08.47.23.13.22.19.56.19 1.03v4c.04.45.33.47.86.07 4.2-3.07 7.58-4.61 10.16-4.63 1.47 0 2.76.44 3.86 1.32 1.1.88 1.89 2.1 2.37 3.64.09.31.33.31.73 0a99.8 99.8 0 0 1 3.34-2.4c.7-.47 1.76-1.02 3.17-1.64a9.65 9.65 0 0 1 3.84-.92c2.85 0 4.85 1.35 5.99 4.07.63 1.54.95 4.57.95 9.07v.43c0 1.21-.05 3-.13 5.35-.08 2.35-.13 4.14-.13 5.38 0 1.08.26 1.77.78 2.08.52.31 1.7.47 3.56.47.13-.05.33-.06.62-.04.28.03.49.1.62.2.19.1.28.34.28.76l-.03.5c0 .29-.06.54-.2.76-.1.2-.21.29-.34.27h-.1c-1.22-.05-3.03-.07-5.42-.07a751 751 0 0 0-8.98.07c-.42 0-.7-.14-.82-.4-.13-.22-.17-.57-.13-1.04.04-.48.23-.72.57-.72h.67c1.39 0 2.32-.22 2.78-.67.47-.46.76-1.41.89-2.87.2-3.07.33-6.23.35-9.5 0-4.2-.33-7.01-.98-8.46-.66-1.45-1.87-2.17-3.65-2.17-1.6 0-4.24 1.31-7.91 3.94v15.66c0 1.68.24 2.78.71 3.3.48.52 1.43.77 2.87.77.34 0 .56.07.68.2.11.14.2.4.24.8 0 .26-.07.52-.21.78-.14.25-.29.38-.46.38a325 325 0 0 0-8.74-.14c-1.73 0-3.31.03-4.75.07-.38 0-.59-.3-.63-.91-.04-.6.13-1 .5-1.18.1-.04.38-.06.86-.06 1.7 0 2.76-.39 3.22-1.16.45-.77.68-2.7.68-5.76V58.8c0-1.77-.4-3.15-1.17-4.14a3.85 3.85 0 0 0-3.2-1.49c-1.73 0-4.46 1.31-8.17 3.94v15.66c0 1.72.24 2.83.71 3.33.48.5 1.54.74 3.18.74.3-.08.5-.08.6 0 .3.1.45.49.45 1.2-.04.24-.13.47-.25.7-.11.2-.23.28-.35.26h-.07c-2.1-.1-4.3-.14-6.6-.14-2.29 0-4.67.05-7.14.14-.3 0-.48-.16-.56-.47Z"/>
  <style>
    rect { fill: #fffff8; }
    path { fill: #111; }
    @media (prefers-color-scheme: dark) {
      rect { fill: #151515; }
      path { fill: #ddd; }
    }
  </style>
</svg>
